<svg width="96" height="96" xmlns="http://www.w3.org/2000/svg" xmlns:xlink="http://www.w3.org/1999/xlink" xml:space="preserve" overflow="hidden"><g><path d="M48.005 6C31.005 6 14.005 32.926 14.005 54.75 14.005 74.75 25.898 91 48.005 91 69.505 91 82.005 74.75 82.005 54.75 82.005 32.926 64.005 6 48.005 6ZM27.232 76.426C22.572 71.1 20.005 63.4 20.005 54.75 20.005 54.287 20.021 53.817 20.038 53.35 23.757 53.563 28.286 50.602 31.203 45.668 34.846 39.507 34.442 32.858 30.64 30.279 29.6962 29.5517 28.5311 29.1711 27.34 29.201 28.051 27.954 28.803 26.732 29.602 25.547 35.321 17.063 42.2 12 48.005 12 52.129 12 57.159 15.072 61.879 20.282 60.379 23.133 60.251 27.466 61.837 31.806 64.197 38.264 69.449 42.281 73.591 40.815 75.1161 45.306 75.9306 50.0077 76.005 54.75 76.009 57.246 75.7723 59.7365 75.298 62.187 71.541 59.777 65.26 62.314 61.061 68.026 57.061 73.47 56.369 79.864 59.275 82.934 55.6858 84.3397 51.8595 85.0412 48.005 85 39.318 85 32.135 82.035 27.232 76.426Z"/><path d="M50.272 28.352C52.779 24.864 52.537 20.402 49.733 18.387 46.929 16.372 42.624 17.568 40.118 21.056 37.612 24.544 37.852 29.006 40.656 31.021 43.46 33.036 47.765 31.841 50.272 28.352Z"/><path d="M33.181 58.718C30.291 58.973 28.255 62.649 28.633 66.928 29.011 71.207 31.661 74.469 34.551 74.214 37.441 73.959 39.478 70.282 39.1 66 38.722 61.718 36.071 58.462 33.181 58.718Z"/><path d="M61.511 48.542C59.935 41.82 55.3 37.158 51.168 38.128 47.036 39.098 44.956 45.328 46.532 52.054 48.108 58.78 52.739 63.437 56.875 62.468 61.011 61.499 63.087 55.263 61.511 48.542Z"/></g></svg>